<svg width="539" height="417" viewBox="0 0 539 417" fill="none" xmlns="http://www.w3.org/2000/svg">
<path fill-rule="evenodd" clip-rule="evenodd" d="M271.849 0.688828C331.267 -6.12676 377.305 39.1584 422.81 68.6305C464.61 95.7022 505.458 124.388 523.22 163.491C541.184 203.041 546.256 248.291 521.355 285.582C497.73 320.963 440.217 331.794 396.187 353.736C354.135 374.693 319.325 403.802 269.654 411.016C212.487 419.318 148.674 420.917 100.129 396.731C50.8135 372.163 29.7391 326.778 14.689 283.992C0.302947 243.094 -10.444 197.247 16.9821 160.354C43.0635 125.27 110.508 125.517 151.668 99.7321C198.522 70.3793 211.332 7.6305 271.849 0.688828Z" fill="white" fill-opacity="0.2"/>
</svg>